<svg width="512" height="512" viewBox="0 0 512 512" fill="none" xmlns="http://www.w3.org/2000/svg">
<rect width="512" height="512" rx="129" fill="url(#paint0_linear_0_12)"/>
<g clip-path="url(#clip0_0_12)">
<path d="M195.16 300.352C200.603 300.501 206.002 299.349 210.91 296.992C215.818 294.635 220.093 291.142 223.379 286.801C224.555 289.472 225.982 292.025 227.643 294.426C229.119 295.958 230.928 297.13 232.929 297.851C234.931 298.572 237.072 298.823 239.187 298.584C241.001 298.66 242.811 298.348 244.496 297.67C246.181 296.992 247.702 295.963 248.958 294.651C250.214 293.34 251.176 291.776 251.781 290.064C252.385 288.352 252.618 286.531 252.464 284.722C252.464 275.989 248.373 271.206 248.373 257.968V182.937C248.373 172.229 240.539 167.931 232.843 167.931C225.147 167.931 216.792 172.229 216.792 182.937V208.617C210.791 204.118 203.493 201.686 195.992 201.686C176.44 201.859 152 214.336 152 251.452C152 288.569 173.563 300.352 195.16 300.352ZM201.608 225.945C204.566 225.808 207.51 226.422 210.165 227.731C212.821 229.04 215.101 231.002 216.792 233.431V266.805C214.98 269.565 212.518 271.839 209.624 273.427C206.729 275.016 203.489 275.872 200.187 275.919C191.416 275.919 184.829 270.201 184.829 251.452C184.829 232.703 193.6 225.945 201.608 225.945V225.945Z" fill="white"/>
<path d="M437.445 203.627C429.576 203.627 424.064 208.271 422.608 217.004C419.738 233.818 414.066 250.031 405.829 264.968H405.483C397.302 249.997 391.69 233.761 388.877 216.935C388.628 213.252 386.969 209.806 384.245 207.315C381.52 204.824 377.94 203.478 374.248 203.558C363.536 203.558 358.336 210.489 358.336 218.009C358.336 237.105 371.752 271.726 385.48 288.326C382.144 293.035 378.244 297.318 373.867 301.08C370.643 303.748 365.304 307.699 363.155 310.021C360.697 312.772 359.307 316.314 359.237 320.002C359.137 321.849 359.427 323.696 360.089 325.423C360.75 327.15 361.768 328.719 363.076 330.026C364.385 331.334 365.954 332.352 367.681 333.013C369.409 333.674 371.257 333.964 373.104 333.864C380.939 333.864 389.155 328.146 397.024 320.66C408.154 309.714 418.25 297.765 427.184 284.965C439.491 267.637 452.525 235.684 452.525 218.009C452.558 216.052 452.185 214.109 451.429 212.303C450.674 210.498 449.553 208.868 448.136 207.517C446.719 206.165 445.038 205.122 443.198 204.453C441.358 203.783 439.399 203.502 437.445 203.627V203.627Z" fill="white"/>
<path d="M326.477 331.022C287.928 354.762 221.749 354.727 181.952 331.022C180.295 329.931 178.435 329.187 176.483 328.834C174.53 328.481 172.527 328.526 170.593 328.968C168.659 329.409 166.834 330.238 165.229 331.403C163.624 332.568 162.271 334.046 161.252 335.748C160.234 337.45 159.57 339.341 159.302 341.306C159.034 343.271 159.166 345.27 159.691 347.182C160.216 349.095 161.123 350.881 162.357 352.434C163.591 353.987 165.127 355.274 166.872 356.217C191.312 370.842 223.101 378.155 254.752 378.155C286.403 378.155 318.053 370.808 341.904 356.148C345.223 354.103 347.594 350.824 348.494 347.031C349.394 343.239 348.751 339.244 346.705 335.926C344.66 332.608 341.379 330.238 337.586 329.338C333.792 328.438 329.796 329.081 326.477 331.126V331.022Z" fill="white"/>
<path d="M147.147 234.887C147.16 233.178 147.009 231.472 146.696 229.792C143.715 212.256 125.307 201.859 105.096 201.859C83.1173 201.859 61.8667 216.45 61.8667 252.007C61.8667 289.47 83.6373 300.525 110.781 300.525C123.469 300.525 145.968 297.06 145.968 282.677C146.011 281.177 145.748 279.684 145.196 278.289C144.645 276.893 143.816 275.624 142.759 274.558C141.703 273.492 140.441 272.651 139.05 272.087C137.659 271.523 136.168 271.247 134.667 271.275C132.05 271.439 129.47 271.976 127.005 272.87C121.795 274.512 116.381 275.421 110.92 275.573C103.605 275.573 96.152 272.454 94.2107 264.344C109.845 265.315 147.147 261.503 147.147 234.887ZM93.4827 245.006V241.541C94.592 231.144 97.816 224.213 106.517 224.213C114.04 224.213 118.789 228.094 118.789 234.609C118.651 245.595 100.485 245.457 93.4827 245.006Z" fill="white"/>
<path d="M351.715 182.937C351.715 172.229 343.845 167.931 336.184 167.931C328.523 167.931 320.099 172.229 320.099 182.937V208.617C314.098 204.118 306.799 201.686 299.299 201.686C279.816 201.686 255.376 214.162 255.376 251.279C255.376 288.396 276.8 300.352 298.501 300.352C303.944 300.501 309.344 299.349 314.252 296.992C319.16 294.635 323.434 291.142 326.72 286.801C327.896 289.472 329.324 292.025 330.984 294.426C332.475 295.978 334.307 297.162 336.334 297.883C338.362 298.605 340.53 298.845 342.667 298.584C344.481 298.66 346.291 298.348 347.976 297.67C349.661 296.992 351.182 295.963 352.438 294.651C353.694 293.34 354.656 291.776 355.261 290.064C355.865 288.352 356.098 286.531 355.944 284.722C355.944 275.989 351.853 271.206 351.853 257.968L351.715 182.937ZM320.099 266.805C318.286 269.565 315.825 271.839 312.93 273.427C310.035 275.016 306.795 275.872 303.493 275.919C294.757 275.919 288.136 270.201 288.136 251.452C288.136 232.703 296.907 225.945 304.915 225.945C307.872 225.808 310.816 226.422 313.472 227.731C316.127 229.04 318.407 231.002 320.099 233.431V266.805Z" fill="white"/>
</g>
<defs>
<linearGradient id="paint0_linear_0_12" x1="256" y1="0" x2="256" y2="512" gradientUnits="userSpaceOnUse">
<stop stop-color="#067FED"/>
<stop offset="1" stop-color="#289DE0"/>
</linearGradient>
<clipPath id="clip0_0_12">
<rect width="390.555" height="210.119" fill="white" transform="translate(61.8667 167.931)"/>
</clipPath>
</defs>
</svg>
